<svg width="84" height="24" viewBox="0 0 84 24" fill="none" xmlns="http://www.w3.org/2000/svg"><g clip-path="url(#clip0_17694_2777)"><path d="M13.2992 23.0089C10.9826 23.0089 8.90318 21.5729 8.06023 19.3914L6.96843 16.569C6.85644 16.3126 6.73747 16.1467 6.61149 16.0696C6.48474 15.9925 6.27943 15.954 5.9956 15.954H5.50958L5.22187 18.34C4.89992 21.0051 2.66266 23.0089 0.0078125 23.0089L2.23729 4.66816C2.56079 2.003 4.79959 0 7.45522 0L5.88984 12.8956H6.20869C6.4723 12.8956 6.68459 12.8547 6.84711 12.7729C7.00887 12.6911 7.17138 12.5425 7.33314 12.327L9.61705 9.16251C10.5533 7.86572 12.0417 7.09502 13.6289 7.08637L16.3001 7.07065L11.8924 12.7423C11.6895 13.0089 11.4671 13.2448 11.2236 13.4493C10.9802 13.6545 10.7267 13.8338 10.4639 13.9872C10.677 14.1617 10.8613 14.3639 11.0184 14.5943C11.1754 14.8247 11.3146 15.0889 11.436 15.3862L14.597 23.0097H13.2992V23.0089Z" fill="white"></path><path d="M16.2695 23.0089L18.4741 4.66895C18.7945 2.00378 21.0318 0 23.6865 0L21.482 18.34C21.1609 21.0051 18.9244 23.0089 16.2695 23.0089Z" fill="white"></path><path d="M42.8055 19.4586C43.0187 19.6025 43.2713 19.7355 43.5653 19.8581C43.8592 19.9808 44.2442 20.0429 44.7201 20.0429C45.389 20.0429 45.8849 19.8919 46.2092 19.5892C46.5335 19.2872 46.6953 18.931 46.6953 18.5212C46.6953 18.2035 46.6113 17.9424 46.444 17.7372C46.277 17.5319 46.0568 17.3558 45.7831 17.2071C45.5095 17.0585 45.2007 16.9256 44.8561 16.8076C44.5117 16.6905 44.1571 16.5591 43.7924 16.416C43.4277 16.2729 43.073 16.1062 42.7286 15.9166C42.384 15.7271 42.0755 15.4888 41.8016 15.2018C41.528 14.9147 41.3077 14.5616 41.1407 14.1409C40.9734 13.721 40.8894 13.2137 40.8894 12.6192C40.8894 11.8815 41.0241 11.1643 41.2922 10.4676C41.5606 9.7708 41.9611 9.15346 42.4929 8.61555C43.0249 8.07766 43.6858 7.64512 44.4759 7.31719C45.266 6.98925 46.1882 6.82568 47.2419 6.82568C48.2956 6.82568 49.2352 7.0097 50.0618 7.37932C50.8875 7.74815 51.5687 8.19954 52.1062 8.73194L51.141 9.97369C50.5764 10.7003 49.5802 10.9182 48.77 10.4919C48.5423 10.374 48.2839 10.2694 47.9948 10.1766C47.7063 10.0846 47.3743 10.0382 46.9993 10.0382C46.3003 10.0382 45.8009 10.1742 45.5024 10.4455C45.203 10.7176 45.0537 11.0684 45.0537 11.4986C45.0537 11.7754 45.137 12.0113 45.3041 12.2055C45.4714 12.4006 45.6914 12.5744 45.965 12.7285C46.2389 12.8818 46.5506 13.0234 46.8998 13.1508C47.249 13.279 47.6066 13.4229 47.9715 13.581C48.3362 13.7398 48.6931 13.9215 49.043 14.1267C49.3922 14.332 49.7039 14.5829 49.9778 14.8801C50.2514 15.1774 50.4714 15.5313 50.6387 15.941C50.806 16.3507 50.8891 16.8375 50.8891 17.4014C50.8891 18.2004 50.732 18.9561 50.4178 19.6686C50.1038 20.3811 49.6526 21.0008 49.0656 21.5285C48.4777 22.0562 47.7661 22.4761 46.9301 22.7891C46.0942 23.1014 45.1548 23.2579 44.1112 23.2579C43.6383 23.2579 43.1664 23.2122 42.7028 23.1178C42.1921 23.014 41.7115 22.8717 41.2612 22.6892C40.8303 22.5147 40.4378 22.3078 40.0831 22.0664C39.7285 21.8258 39.44 21.567 39.2168 21.2902L40.1009 19.9769C40.7075 19.0772 41.9182 18.846 42.8055 19.4586Z" fill="white"></path><path d="M52.2578 23.0089L54.4556 4.73029C54.7799 2.02974 57.0459 0 59.7357 0L58.6261 9.16094C59.3454 8.36195 60.1051 7.77291 60.906 7.39307C61.7061 7.01404 62.532 6.82451 63.3835 6.82451C63.9707 6.82451 64.5157 6.93224 65.0174 7.14693C65.519 7.3624 65.9467 7.67697 66.3013 8.0922C66.656 8.50742 66.9342 9.01702 67.1373 9.62177C67.3402 10.2265 67.4413 10.9233 67.4413 11.7121C67.4413 11.8969 67.4335 12.0864 67.4187 12.2806C67.4041 12.4757 67.386 12.6754 67.366 12.8799L66.1808 23.0089H61.469L62.6541 12.8799C62.6744 12.7163 62.69 12.5645 62.7 12.4269C62.71 12.2885 62.7155 12.158 62.7155 12.0353C62.7155 11.4816 62.6192 11.0979 62.4271 10.8824C62.2342 10.6669 61.9457 10.56 61.5607 10.56C61.2467 10.56 60.9169 10.6551 60.5732 10.8446C60.2286 11.0342 59.8966 11.3031 59.5777 11.6515C59.2589 11.9999 58.9595 12.4198 58.6813 12.9121C58.4019 13.4036 58.1719 13.9526 57.9898 14.5565L57.5411 18.2802C57.2138 20.9792 54.9469 23.0089 52.2578 23.0089Z" fill="white"></path><path d="M82.0773 23.0082H79.5547C79.2608 23.0082 79.015 22.9697 78.8176 22.8926C78.62 22.8155 78.4629 22.7109 78.3463 22.5772C78.2297 22.4443 78.1487 22.2855 78.1028 22.1007C78.0569 21.9159 78.0343 21.7161 78.0343 21.5014V20.3643C77.386 21.2663 76.6666 21.9733 75.8765 22.4852C75.0864 22.998 74.2146 23.2535 73.262 23.2535C72.6944 23.2535 72.1476 23.1379 71.6204 22.9075C71.0933 22.6771 70.6275 22.3287 70.2224 21.8624C69.817 21.396 69.4927 20.8015 69.2495 20.0796C69.0059 19.3569 68.8848 18.5044 68.8848 17.5206C68.8848 16.076 69.1452 14.7052 69.6678 13.4092C70.1895 12.1132 70.9191 10.9784 71.856 10.0048C72.793 9.03125 73.9051 8.2582 75.1921 7.68412C76.4783 7.11004 77.8922 6.823 79.4326 6.823C80.1823 6.823 80.9421 6.87412 81.7126 6.97634C82.4826 7.07858 83.2423 7.2634 83.9927 7.52999L82.0773 23.0082ZM75.1471 19.4882C75.4915 19.4882 75.8258 19.3577 76.1501 19.0966C76.4745 18.8355 76.781 18.4792 77.0694 18.0286C77.3579 17.578 77.6238 17.0503 77.8673 16.4456C77.8696 16.4393 77.8718 16.4338 77.8741 16.4275C78.2575 15.4712 78.4963 14.4622 78.6231 13.4383L79.0376 10.0984H78.7637C77.9939 10.0984 77.2917 10.273 76.6589 10.6214C76.0258 10.9698 75.4806 11.444 75.025 12.0432C74.5693 12.6425 74.2169 13.3392 73.9688 14.1335C73.7208 14.9278 73.5964 15.7755 73.5964 16.6775C73.5964 17.1903 73.6368 17.6252 73.7178 17.9838C73.7986 18.3424 73.9074 18.6318 74.0444 18.852C74.1813 19.0722 74.3429 19.2334 74.5305 19.3364C74.7194 19.4371 74.9239 19.4882 75.1471 19.4882Z" fill="white"></path><path d="M37.1534 23.0083H34.6309C34.3369 23.0083 34.0911 22.9698 33.8935 22.8927C33.6961 22.8156 33.5391 22.7111 33.4224 22.5774C33.3056 22.4444 33.2248 22.2856 33.1789 22.1008C33.1331 21.916 33.1105 21.7162 33.1105 21.5015V20.3644C32.4619 21.2664 31.7427 21.9734 30.9527 22.4853C30.1626 22.9981 29.2908 23.2537 28.3382 23.2537C27.7706 23.2537 27.2238 23.138 26.6966 22.9076C26.1694 22.6772 25.7036 22.3289 25.2983 21.8625C24.8932 21.3962 24.5689 20.8016 24.3256 20.0797C24.0821 19.3578 23.9609 18.5045 23.9609 17.5207C23.9609 16.0761 24.2213 14.7053 24.744 13.4093C25.2657 12.1133 25.9951 10.9785 26.9321 10.005C27.8692 9.03137 28.9813 8.25832 30.2682 7.68424C31.5545 7.11016 32.9683 6.82312 34.5088 6.82312C35.2582 6.82312 36.0182 6.87424 36.7887 6.97646C37.5587 7.0787 38.3184 7.26352 39.0688 7.53012L37.1534 23.0083ZM30.2224 19.4883C30.567 19.4883 30.9013 19.3578 31.2256 19.0967C31.5499 18.8356 31.8562 18.4794 32.1446 18.0287C32.4331 17.5781 32.6992 17.0504 32.9425 16.4457C32.9448 16.4394 32.9473 16.4339 32.9496 16.4276C33.333 15.4713 33.5717 14.4624 33.6984 13.4384L34.1128 10.0985H33.8392C33.0694 10.0985 32.3672 10.2731 31.7341 10.6215C31.101 10.9699 30.556 11.4441 30.1003 12.0433C29.6445 12.6426 29.2924 13.3394 29.0443 14.1336C28.7962 14.9279 28.6718 15.7757 28.6718 16.6777C28.6718 17.1904 28.7122 17.6253 28.793 17.9839C28.874 18.3425 28.9829 18.6319 29.1196 18.8521C29.2565 19.0723 29.4183 19.2335 29.6057 19.3365C29.7947 19.4372 29.9992 19.4883 30.2224 19.4883Z" fill="white"></path></g><defs><clipPath id="clip0_17694_2777"><rect width="83.9846" height="23.3103" fill="white" transform="translate(0.0078125)"></rect></clipPath></defs></svg>