<svg width="24" height="24" viewBox="0 0 24 24" fill="none" xmlns="http://www.w3.org/2000/svg">
<path d="M10.4451 3.78979C10.4451 3.78979 7.8121 8.63603 10.7985 13.0978C13.7848 17.5595 19.4484 17.1526 19.4484 17.1526L8.58801 21.2842C8.44367 21.3401 8.29766 21.3894 8.14945 21.433C8.00124 21.4767 7.85137 21.5142 7.70039 21.5455C7.54886 21.5769 7.39678 21.6015 7.24359 21.6205C7.0904 21.639 6.93665 21.6513 6.78236 21.6575C6.62806 21.6631 6.47377 21.6631 6.31947 21.6558C6.16518 21.6491 6.01143 21.6362 5.85824 21.6166C5.70505 21.597 5.55297 21.5713 5.40199 21.5388C5.25102 21.5069 5.10114 21.4683 4.95348 21.4241C4.80527 21.3793 4.65927 21.3289 4.51548 21.2724C4.37114 21.2159 4.23012 21.1532 4.09076 21.0849C3.95195 21.0166 3.8159 20.9428 3.68317 20.8633C3.54989 20.7838 3.42048 20.6993 3.29439 20.6086C3.1683 20.5185 3.04608 20.4234 2.92718 20.3232C2.80883 20.2225 2.6949 20.1178 2.58485 20.0081C2.4748 19.8978 2.36917 19.7842 2.26852 19.6656C2.16787 19.5469 2.07164 19.4244 1.98094 19.2979C1.94831 19.2497 1.91513 19.1994 1.88029 19.1479C-0.252752 15.9611 2.16123 13.0754 2.16123 13.0754L10.4451 3.78979Z" fill="#0097F8"/>
<path d="M22.1005 5.56789C22.2067 5.72628 22.3045 5.88915 22.3947 6.05761C22.4854 6.22551 22.5672 6.3979 22.6402 6.57419C22.7138 6.75049 22.7785 6.93015 22.8349 7.1126C22.8908 7.29562 22.9378 7.48031 22.9759 7.6678C23.0141 7.85529 23.0434 8.0439 23.0627 8.23419C23.0827 8.42448 23.0932 8.61533 23.0948 8.80674C23.0959 8.99815 23.0876 9.189 23.0705 9.37929C23.0533 9.56958 23.0268 9.75875 22.9914 9.94681C22.956 10.1343 22.9112 10.3201 22.8576 10.5031C22.8039 10.6867 22.7414 10.8669 22.6706 11.0443C22.5993 11.2212 22.5197 11.3947 22.4317 11.5637C22.3438 11.7327 22.2481 11.8973 22.1442 12.0568C22.0402 12.2169 21.929 12.3708 21.8101 12.5191C21.6912 12.668 21.5657 12.8101 21.433 12.9461C21.3002 13.0821 21.1614 13.2114 21.016 13.3334C20.8705 13.456 20.7201 13.5707 20.5636 13.6776C20.4071 13.7851 20.2462 13.8841 20.0797 13.9754C19.9138 14.066 19.744 14.1489 19.5698 14.2233C19.3956 14.2972 19.2186 14.3627 19.0383 14.4192C18.8575 14.4757 18.675 14.5233 18.4897 14.5619C18.305 14.6005 18.1186 14.6296 17.9306 14.6492C17.7426 14.6694 17.554 14.6794 17.3654 14.6805C17.1763 14.6817 16.9877 14.6733 16.7997 14.6559C16.6116 14.638 16.4247 14.6111 16.2394 14.5753C16.0536 14.539 15.87 14.4936 15.6892 14.4393C15.5078 14.3845 15.3297 14.3212 15.1549 14.249C14.9796 14.1768 14.8087 14.0962 14.6412 14.0073C14.4742 13.9177 14.3116 13.8209 14.154 13.7151C13.9963 13.6099 13.8437 13.4968 13.6972 13.3765C13.55 13.2562 13.4096 13.1286 13.2746 12.9942C13.1403 12.8599 13.0125 12.7189 12.8919 12.5717C12.7708 12.4245 12.6575 12.2717 12.5513 12.1133C12.4456 11.9549 12.3472 11.7915 12.2571 11.6236C12.1669 11.4551 12.0851 11.2833 12.0115 11.107C11.938 10.9307 11.8733 10.7511 11.8174 10.568C11.7615 10.3856 11.714 10.2003 11.6758 10.0128C11.6382 9.82591 11.6089 9.63674 11.589 9.44645C11.5696 9.25616 11.5586 9.06587 11.5575 8.87446C11.5564 8.68306 11.5641 8.49221 11.5813 8.30192C11.599 8.11107 11.6249 7.92245 11.6609 7.7344C11.6963 7.54635 11.7411 7.3611 11.7947 7.17752C11.8484 6.99451 11.9103 6.81429 11.9817 6.63688C12.053 6.46002 12.1321 6.28652 12.22 6.1175C12.3079 5.94792 12.4042 5.78393 12.5081 5.62386C12.6121 5.46435 12.7233 5.31044 12.8422 5.16157C12.9611 5.01326 13.0866 4.8711 13.2193 4.7351C13.3521 4.59854 13.4909 4.46981 13.6363 4.34724C13.7812 4.22523 13.9322 4.1105 14.0887 4.0036C14.2452 3.89614 14.4061 3.79708 14.5721 3.70585C14.738 3.61462 14.9083 3.53235 15.0825 3.45791C15.2562 3.38348 15.4337 3.318 15.614 3.26147C15.7943 3.20494 15.9773 3.15737 16.162 3.11931C16.3473 3.08069 16.5337 3.05159 16.7217 3.032C16.9097 3.01185 17.0977 3.00122 17.2869 3.0001C17.476 2.99898 17.6641 3.00737 17.8526 3.02528C18.0407 3.04263 18.2276 3.0695 18.4129 3.10588C18.5987 3.14226 18.7817 3.18759 18.9631 3.24188C19.144 3.29617 19.322 3.35997 19.4974 3.43217C19.6721 3.50381 19.8435 3.58496 20.0106 3.67395C20.1781 3.76294 20.3407 3.86032 20.4983 3.96554C20.656 4.07132 20.8086 4.18381 20.9551 4.3047C21.1022 4.42504 21.2427 4.55264 21.3771 4.68696C21.512 4.82129 21.6392 4.96232 21.7604 5.10952C21.8809 5.25671 21.9948 5.40951 22.1005 5.56789Z" fill="#0097F8"/>
</svg>
