<svg xmlns="http://www.w3.org/2000/svg" xmlns:xlink="http://www.w3.org/1999/xlink" width="59.81" height="25.5" viewBox="0 0 59.81 25.5"><defs><style>.a{clip-rule:evenodd;}.b{fill:#fff;}.c,.f{fill:none;}.c,.e,.f{fill-rule:evenodd;}.d{clip-path:url(#a);}.e{fill:#ffcc29;}.f{stroke:#ffcc29;stroke-miterlimit:2.613;stroke-width:3px;}</style><clipPath id="a"><path class="a" d="M4761.444,1491.42a8.775,8.775,0,1,1-8.774,8.775A8.775,8.775,0,0,1,4761.444,1491.42Z" transform="translate(-4752.67 -1491.42)"/></clipPath></defs><g transform="translate(-2084.95 -1618.89)"><g transform="translate(2084.95 1618.89)"><path class="b" d="M2133.724,992.016a1.6,1.6,0,0,0-.873.217.725.725,0,0,0-.341.656.762.762,0,0,0,.341.671,5.142,5.142,0,0,0,1.451.5,3.993,3.993,0,0,1,1.673.754,1.786,1.786,0,0,1,.563,1.431,1.9,1.9,0,0,1-.713,1.534,2.84,2.84,0,0,1-1.87.589,4.392,4.392,0,0,1-3.006-1.167l.764-.919a3.442,3.442,0,0,0,2.272.95,1.552,1.552,0,0,0,.935-.253.792.792,0,0,0,.346-.671.754.754,0,0,0-.325-.651,3.421,3.421,0,0,0-1.121-.423,10.126,10.126,0,0,1-1.209-.351,2.73,2.73,0,0,1-.733-.418,1.747,1.747,0,0,1-.64-1.487,1.811,1.811,0,0,1,.728-1.544,2.933,2.933,0,0,1,1.8-.542,4.32,4.32,0,0,1,1.374.227,3.588,3.588,0,0,1,1.177.64l-.651.919a2.46,2.46,0,0,0-.868-.475A3.342,3.342,0,0,0,2133.724,992.016Zm5.459,1.7v2.789a.907.907,0,0,0,.207.625.734.734,0,0,0,.578.232.985.985,0,0,0,.713-.361l.475.816a1.972,1.972,0,0,1-1.348.548,1.734,1.734,0,0,1-1.26-.511,1.842,1.842,0,0,1-.522-1.379v-2.758h-.692v-.93h.692v-1.725h1.157v1.725h1.446v.93h-1.446Zm7.345,4.566h-1.054v-.733a2.261,2.261,0,0,1-1.829.816,2.1,2.1,0,0,1-1.42-.486,1.626,1.626,0,0,1-.563-1.3,1.365,1.365,0,0,1,.6-1.214,2.869,2.869,0,0,1,1.622-.4h1.5v-.207q0-1.095-1.219-1.095a2.858,2.858,0,0,0-1.591.558l-.517-.723a3.559,3.559,0,0,1,2.273-.8,2.463,2.463,0,0,1,1.585.491,1.858,1.858,0,0,1,.615,1.544Zm-1.157-2.045v-.465h-1.3q-1.25,0-1.25.785a.7.7,0,0,0,.31.615,1.514,1.514,0,0,0,.863.212,1.566,1.566,0,0,0,.966-.31.992.992,0,0,0,.413-.837Zm5.65-2.366a1.535,1.535,0,0,0-1.291.558,2.377,2.377,0,0,0-.434,1.5v2.355h-1.157v-5.5h1.157V993.9a2.391,2.391,0,0,1,.759-.847,1.829,1.829,0,0,1,1.017-.341l.01,1.167Zm2.645-.155v2.789a.908.908,0,0,0,.206.625.735.735,0,0,0,.579.232.985.985,0,0,0,.713-.361l.475.816a1.971,1.971,0,0,1-1.348.548,1.734,1.734,0,0,1-1.26-.511,1.843,1.843,0,0,1-.522-1.379v-2.758h-.692v-.93h.692v-1.725h1.157v1.725h1.446v.93h-1.446Zm6.735,2.045v-2.975h1.157v5.5H2160.4v-1a2.157,2.157,0,0,1-3.331.516,2.212,2.212,0,0,1-.573-1.643v-3.368h1.157v3.016q0,1.518,1.26,1.518a1.514,1.514,0,0,0,1.043-.4A1.479,1.479,0,0,0,2160.4,995.766Zm5.775-3.058a2.612,2.612,0,0,1,1.89.765,2.71,2.71,0,0,1,.785,2.035,2.825,2.825,0,0,1-.78,2.066,2.418,2.418,0,0,1-3.683-.114l.028,3.366-1.185-.829v-7.206h1.157v.961a2.057,2.057,0,0,1,1.787-1.043Zm-1.808,2.841a1.793,1.793,0,0,0,.475,1.286,1.534,1.534,0,0,0,1.157.5,1.644,1.644,0,0,0,1.188-.5,1.72,1.72,0,0,0,.506-1.286,1.83,1.83,0,0,0-.5-1.312,1.582,1.582,0,0,0-1.188-.522,1.518,1.518,0,0,0-1.167.522A1.868,1.868,0,0,0,2164.368,995.549Z" transform="translate(-2130.95 -990.89)"/><path class="b" d="M2139.581,1668.94v-12.379h2.089v10.4h5.649v1.983h-7.739Zm11.776-2.816-1.24,2.816h-2.231l5.454-12.379h2.231l5.454,12.379h-2.231l-1.24-2.816h-6.2Zm5.349-1.93-2.249-5.1-2.249,5.1Zm14.61-1.275h2.09v4.232a6.425,6.425,0,0,1-5.012,1.93,6.319,6.319,0,0,1-4.6-1.806,6.565,6.565,0,0,1,.035-9.174,6.288,6.288,0,0,1,4.56-1.842,6.484,6.484,0,0,1,4.445,1.558l-1.116,1.594a4.349,4.349,0,0,0-1.461-.859,5.531,5.531,0,0,0-1.709-.239,4.4,4.4,0,0,0-3.152,1.213,4.357,4.357,0,0,0,2.966,7.553,5.355,5.355,0,0,0,2.949-.761Zm23.137-4.729a2.745,2.745,0,0,0-1.5.372,1.244,1.244,0,0,0-.584,1.125,1.309,1.309,0,0,0,.584,1.151,8.844,8.844,0,0,0,2.488.859,6.834,6.834,0,0,1,2.869,1.293,3.06,3.06,0,0,1,.966,2.453,3.25,3.25,0,0,1-1.222,2.63,4.87,4.87,0,0,1-3.205,1.009,7.529,7.529,0,0,1-5.153-2l1.311-1.576a5.9,5.9,0,0,0,3.9,1.629,2.662,2.662,0,0,0,1.6-.434,1.358,1.358,0,0,0,.593-1.151,1.293,1.293,0,0,0-.558-1.116,5.875,5.875,0,0,0-1.922-.726,17.278,17.278,0,0,1-2.072-.6,4.677,4.677,0,0,1-1.257-.717,3,3,0,0,1-1.1-2.55,3.105,3.105,0,0,1,1.249-2.647,5.03,5.03,0,0,1,3.09-.93,7.41,7.41,0,0,1,2.355.39,6.158,6.158,0,0,1,2.019,1.1l-1.116,1.576a4.219,4.219,0,0,0-1.488-.815,5.732,5.732,0,0,0-1.851-.319Z" transform="translate(-2139.469 -1647.685)"/><path class="c" d="M4761.444,1491.42a8.775,8.775,0,1,1-8.774,8.775A8.775,8.775,0,0,1,4761.444,1491.42Z" transform="translate(-4718.882 -1484.97)"/><g class="d" transform="translate(33.788 6.451)"><g transform="translate(1.034 1.081)"><path class="e" d="M5347.64,1619.54a1.588,1.588,0,0,0-.1.132l-1.426,3.044c-.879,2.041-3.913,8.43-4.154,9.627,1.819,1.167,2.745,2.611,3.638,3l2.042-15.8Z" transform="translate(-5335.399 -1618.97)"/><path class="e" d="M4837.433,1587.1c.765-.5,3.107-4.642,3.852-5.825a58.864,58.864,0,0,0,3.621-5.965,27.841,27.841,0,0,0-3.067,2.73l-7.493,6.761a18.058,18.058,0,0,0-1.456,1.366Z" transform="translate(-4832.89 -1575.31)"/></g></g><path class="f" d="M4761.444,1491.42a8.775,8.775,0,1,1-8.774,8.775A8.775,8.775,0,0,1,4761.444,1491.42Z" transform="translate(-4718.882 -1484.97)"/></g></g></svg>